<?xml version="1.0" encoding="utf-8"?>
<!-- Generator: Adobe Illustrator 19.2.1, SVG Export Plug-In . SVG Version: 6.00 Build 0)  -->
<svg version="1.1" id="Layer_1" xmlns="http://www.w3.org/2000/svg" xmlns:xlink="http://www.w3.org/1999/xlink" x="0px" y="0px"
	 viewBox="0 0 439.4 111.4" style="enable-background:new 0 0 439.4 111.4;" xml:space="preserve">
<style type="text/css">
	.st0{fill-rule:evenodd;clip-rule:evenodd;fill:url(#SVGID_1_);}
	.st1{fill-rule:evenodd;clip-rule:evenodd;fill:url(#SVGID_2_);}
	.st2{fill-rule:evenodd;clip-rule:evenodd;fill:#FFFFFF;}
	.st3{opacity:0.5;fill:#FFFFFF;}
	.st4{fill:none;stroke:#231F20;stroke-width:1.211;stroke-miterlimit:10;}
	.st5{fill-rule:evenodd;clip-rule:evenodd;fill:none;stroke:#231F20;stroke-width:1.211;stroke-miterlimit:10;}
	.st6{fill:url(#SVGID_3_);}
	.st7{fill:#E0E0E0;}
	.st8{opacity:0.6;fill:#FFFFFF;}
	.st9{fill-rule:evenodd;clip-rule:evenodd;fill:url(#SVGID_4_);}
	.st10{fill-rule:evenodd;clip-rule:evenodd;fill:#141414;}
	.st11{opacity:0.5;fill-rule:evenodd;clip-rule:evenodd;fill:#FFFFFF;}
	.st12{fill-rule:evenodd;clip-rule:evenodd;fill:none;stroke:#000000;stroke-width:1.0129;stroke-miterlimit:10;}
	.st13{fill:#0088CF;}
	.st14{fill:url(#SVGID_5_);}
	.st15{fill:none;stroke:#231F20;stroke-width:1.1133;stroke-miterlimit:10;}
</style>
<g>
	<linearGradient id="SVGID_1_" gradientUnits="userSpaceOnUse" x1="8.7527" y1="61.4356" x2="21.6699" y2="61.4356">
		<stop  offset="0" style="stop-color:#808184"/>
		<stop  offset="1" style="stop-color:#404041"/>
	</linearGradient>
	<path class="st0" d="M21.7,12.7c0,0-12.9-3.7-12.9,7.7c0,12.1,0.2,82.4,0.2,82.4s0,8.3,8.9,8.1"/>
	<linearGradient id="SVGID_2_" gradientUnits="userSpaceOnUse" x1="11.6471" y1="61.6256" x2="56.3027" y2="61.6256">
		<stop  offset="0" style="stop-color:#A6A8AB"/>
		<stop  offset="1" style="stop-color:#808184"/>
	</linearGradient>
	<path class="st1" d="M51.4,19.7c0,0,5,0.2,4.8,7.1c-0.2,6.9,0,69.8,0,69.8s0.4,6.7-4.9,7.7c-7.4,1.4-31.1,6.1-31.1,6.1
		s-8.7,3-8.7-7.9c0-10.9,0-79.5,0-79.5s-1.2-12.9,10.7-10.1C38.2,16.6,51.4,19.7,51.4,19.7z"/>
	<path class="st2" d="M20.6,21.6l29.3,6.3c0,0,3.8,0.2,3.6,5.7c-0.2,8.9,0,56.3,0,56.3s0.1,2.2-4,2.6c-5.3,0.5-28.9,4.1-28.9,4.1
		s-4.3,1.2-4.2-4.1c0.1-6.4,0-67,0-67S15.5,20.8,20.6,21.6z"/>
</g>
<path class="st3" d="M55.6,22.6c-3.6-0.8-7.2-1.6-10.8-2.5c-6.1-1.4-12.2-2.7-18.3-4.2c-1.2-0.3-2.5-0.5-3.7-0.8
	c-2.2-0.6-3.8-0.6-5.6,0.7c-1.8,1.3-2.7,3.2-2.7,5.5c-0.2,6.1-0.2,80-0.2,80s-0.2,7.3,5.1,7c3-0.2,33.7-6.4,35.9-6.4l-1.4,2
	l-35.8,6.8c0,0-6.1,1.8-6.1-10.1c0-11.9,0-79.7,0-79.7s0.1-9.3,9.1-8.5C30.2,13,53.8,20,53.8,20L55.6,22.6z"/>
<g>
	<path class="st4" d="M21.7,12.7c0,0-12.9-3.7-12.9,7.7c0,12.1,0.2,82.4,0.2,82.4s0,8.3,8.9,8.1"/>
	<path class="st4" d="M51.4,19.7c0,0,5,0.2,4.8,7.1c-0.2,6.9,0,69.8,0,69.8s0.4,6.7-4.9,7.7c-7.4,1.4-31.1,6.1-31.1,6.1
		s-8.7,3-8.7-7.9s0-79.5,0-79.5s-1.2-12.9,10.7-10.1C38.2,16.6,51.4,19.7,51.4,19.7z"/>
	<path class="st5" d="M20.6,21.6l29.3,6.3c0,0,3.8,0.2,3.6,5.7c-0.2,8.9,0,56.3,0,56.3s0.1,2.2-4,2.6c-5.3,0.5-28.9,4.1-28.9,4.1
		s-4.3,1.2-4.2-4.1c0.1-6.4,0-67,0-67S15.5,20.8,20.6,21.6z"/>
</g>
<g>
	<g>
		<linearGradient id="SVGID_3_" gradientUnits="userSpaceOnUse" x1="27.5901" y1="68.5872" x2="45.5397" y2="68.5872">
			<stop  offset="0" style="stop-color:#00ADEE"/>
			<stop  offset="1" style="stop-color:#007DC4"/>
		</linearGradient>
		<polygon class="st6" points="27.6,42 35,53.4 29.1,95.1 44.4,92.8 39.4,53.3 45.5,42 		"/>
	</g>
	<polygon class="st7" points="16.3,48.3 24.7,54.8 37.2,42.1 16.3,26.3 	"/>
	<polygon class="st7" points="53.5,48.6 46.9,55.4 37.2,42.1 53.5,32.8 	"/>
</g>
<polygon class="st3" points="32.8,46.6 37.2,52.7 31.4,94.2 29.1,94.6 35,53.5 31.3,48.1 "/>
<polygon class="st8" points="16.3,26.3 16.3,48.3 18.5,50.1 18.5,28.3 "/>
<polygon class="st8" points="37.4,42.5 46.8,55.6 48.5,53.9 39.1,41.1 "/>
<g>
	<g>
		<polygon class="st4" points="31.4,47.9 35,53.4 29.1,95.1 44.4,92.8 39.4,53.3 41.9,48.6 36.9,42 		"/>
	</g>
	<polygon class="st4" points="16.3,48.3 24.7,54.8 37.2,42.1 16.3,26.3 	"/>
	<polygon class="st4" points="53.4,48.6 46.8,55.4 41.9,48.6 37.2,42.1 53.5,32.8 	"/>
</g>
<g>
	<linearGradient id="SVGID_4_" gradientUnits="userSpaceOnUse" x1="7.935" y1="18.9897" x2="41.4497" y2="18.9897">
		<stop  offset="0" style="stop-color:#00ADEE"/>
		<stop  offset="1" style="stop-color:#007DC4"/>
	</linearGradient>
	<path class="st9" d="M7.9,20.8l0.5,0.9c0,0-0.3,1.5,1.2,3.7C11.2,27.6,12,28,12,28l13-0.7l15.3-9.5l1.1-1.7l-1.4-1.4L36.4,10
		L7.9,20.8z"/>
	<g>
		<path class="st10" d="M40.5,14.6c0.5,1.2,0.1,1.8-1.2,2.6c-2.1,1.4-4.2,2.7-6.4,3.9c-2.1,1.2-4.3,2.2-6.5,3
			c-2.5,1-4.9,2.2-7.6,2.5c-1.9,0.3-4.9,1-8,0.4c-0.3-0.1-0.7-0.4-0.9-0.7c-0.4-0.5-0.7-1.4-1-2c-1.8,1.1-3.5,2.4-5.3,3.5
			c-0.9,0.6-1.6,1.3-2.5,1.9c0,0-0.1,0.1-0.1,0.1c-0.6,0.7-1.1,1.4-0.8,2.3c0.3,0.9,1.1,1.3,2,1.6C6,35,9.8,34.7,13.7,34.2
			c1.9-0.2,3.7-0.4,5.5-0.8c3.1-0.7,6.2-1.4,9.2-2.3c6.5-1.9,12.6-4.6,18.2-8.3c1.9-1.2,3.5-2.7,5.2-4.3c1.7-1.7,1-4-1.3-4.7
			c-1.4-0.5-2.7-0.2-3.9,0C44.5,14,43,14,41,14.4C40.9,14.4,40.7,14.5,40.5,14.6z"/>
		<path class="st10" d="M18.1,21.5c1.4-0.6,2.6-1.5,3.9-2.3c2.3-1.4,4.6-2.8,6.9-4.2c1.3-0.8,2.6-1.6,3.8-2.3c1.3-0.8,2.6-1.5,4-2.3
			c-0.3-0.4-0.6-0.8-0.9-1.3c-1.5-2.2-3-4.3-4.4-6.5c-0.8-1.3-2-1.9-3.4-1.6c-1.5,0.3-3.1,0.7-4.5,1.4c-2.7,1.2-5.4,2.6-8.1,4
			c-1.8,0.9-3.7,1.6-5.5,2.7c-2.7,1.6-3.7,4.3-3.3,6.9c0.3,1.6,0.9,3.2,1.4,4.8c0.1,0.3,0.2,0.5,0.3,0.8c0.1,0.5,0.4,0.6,0.9,0.7
			c1.8,0.2,3.7,0.8,5.5,0.5C15.9,22.4,17,22,18.1,21.5z"/>
	</g>
	<path class="st11" d="M30.8,1.5L14,9.5c0,0-5.5,2.3-4.5,6.7c0.8,3.6,2.8,10.7,2.8,10.7l-3-1.1l-1.4-4.3l-1.4-6c0,0-0.3-4.6,3.5-6.5
		C13.8,7,24.8,1.8,24.8,1.8L28.7,0L30.8,1.5z"/>
	<path class="st11" d="M9.5,26.4L5,30.2c0,0-2.5,1.7,0.3,1.9c2.7,0.3,5.6,1.2,5,2.3c-0.6,1.1-9-0.4-9.4-1c-0.3-0.6-2-1.7,0.9-4.2
		C4.6,26.9,8.7,25,8.7,25L9.5,26.4z"/>
	<g>
		<path class="st12" d="M36.7,10.4l4.2,4.4c-1.1,2.3-5.4,5-7.6,6.2c-2.1,1.2-4.3,2.2-6.5,3c-2.5,1-4.9,2.2-7.6,2.5
			c-2.4,0.3-4.7,0.8-7.2,0.5c-0.7-0.1-1.3-0.3-1.9-0.8C9.6,26,9,25.6,8.7,25c-1.8,1.1-6.3,4-7.1,4.7c0,0-0.1,0.1-0.1,0.1
			c-0.6,0.7-1.1,1.4-0.8,2.3c0.3,0.9,1.1,1.3,2,1.6c3.8,1.2,7.6,0.9,11.5,0.4c1.9-0.2,3.7-0.4,5.5-0.8c3.1-0.7,6.2-1.4,9.2-2.3
			c6.5-1.9,12.5-4.6,18.2-8.3c1.9-1.2,3.5-2.7,5.2-4.3c1.7-1.7,1-4-1.3-4.7c-1.4-0.5-2.7-0.2-3.9,0c-2,0.3-4,0.7-6,1.1
			C40.7,14.8,36.7,10.4,36.7,10.4z"/>
		<path class="st12" d="M18.1,21.5c1.4-0.6,2.6-1.5,3.9-2.3c2.3-1.4,4.6-2.8,6.9-4.2c1.3-0.8,2.6-1.6,3.8-2.3c1.3-0.8,2.6-1.5,4-2.3
			c-0.3-0.4-0.6-0.8-0.9-1.3c-1.5-2.2-3-4.3-4.4-6.5c-0.8-1.3-2-1.9-3.4-1.6c-1.5,0.3-3.1,0.7-4.5,1.4c-2.7,1.2-5.4,2.6-8.1,4
			c-1.8,0.9-3.7,1.6-5.5,2.7c-2.7,1.6-3.7,4.3-3.3,6.9c0.3,1.6,0.9,3.2,1.4,4.8c0.1,0.3,0.2,0.5,0.3,0.8c0.1,0.5,0.4,0.6,0.9,0.7
			c1.8,0.2,3.7,0.8,5.5,0.5C15.9,22.4,17,22,18.1,21.5z"/>
	</g>
	<line class="st12" x1="9.3" y1="25.7" x2="8.4" y2="21.5"/>
</g>
<g>
	<path d="M117.9,74.5c-14.5,0-26.2-11.7-26.2-26.2c0-14.4,11.7-26.2,26.2-26.2c7.2,0,13.7,2.9,18.5,7.6l-3.6,3.6
		c-3.8-3.8-9.1-6.5-14.9-6.5c-11.7,0-21.1,9.7-21.1,21.4c0,11.7,9.4,21.4,21.1,21.4c5.7,0,9.9-1.5,13.5-4.6V51.3h-13.6v-4.8h18.7
		v20.2C131.7,71.5,125.1,74.5,117.9,74.5z"/>
	<path d="M143.7,57.1c0-9.6,7.5-17.4,16.8-17.4c9.3,0,16.8,7.8,16.8,17.4c0,9.6-7.5,17.4-16.8,17.4
		C151.2,74.5,143.7,66.7,143.7,57.1z M172.4,57.1c0-7.6-4.7-13-11.8-13c-7.1,0-11.8,5.5-11.8,13c0,7.6,5,13,11.8,13
		C167.6,70.1,172.4,64.7,172.4,57.1z"/>
	<path d="M183.1,57.1c0-9.6,7.5-17.4,16.8-17.4s16.8,7.8,16.8,17.4c0,9.6-7.5,17.4-16.8,17.4S183.1,66.7,183.1,57.1z M211.7,57.1
		c0-7.6-4.7-13-11.8-13c-7.1,0-11.8,5.5-11.8,13c0,7.6,5,13,11.8,13C207,70.1,211.7,64.7,211.7,57.1z"/>
	<path d="M253,73.7h-4.8c0-2.3,0-3.9,0.1-5.2c-2.4,3.9-6.2,6-10.8,6c-8.4,0-15-6.5-15-17.4c0-10.9,6.7-17.1,15-17.1
		c4.6,0,8.4,2,10.8,6c-0.1-1-0.1-2-0.1-3.1V19.3h4.8V73.7z M248.2,57.2c0-7.9-3.7-13-10.2-13c-5.5,0-10.6,5-10.6,12.9
		c0,7.8,5.1,13.1,10.6,13.1C244.5,70.2,248.2,65.1,248.2,57.2z"/>
	<path class="st13" d="M287.4,74.5c-14.5,0-26.2-11.7-26.2-26.2c0-14.4,11.7-26.2,26.2-26.2c7.2,0,13.7,2.9,18.5,7.6l-3.6,3.6
		c-3.8-3.8-9.1-6.5-14.9-6.5c-11.7,0-21.1,9.7-21.1,21.4c0,11.7,9.4,21.4,21.1,21.4c5.9,0,11.2-2.7,15-6.6l3.6,3.6
		C301.3,71.5,294.7,74.5,287.4,74.5z"/>
	<path class="st13" d="M343,58.6h-27c0.6,7.5,6,11.4,12.1,11.4c5.4,0,9.1-2.6,11.1-5.7l3.6,3c-3.1,4-7,7.2-14.7,7.2
		c-10.3,0-17-7.8-17-17.4c0-9.6,6.5-17.4,16.4-17.4c10.2,0,15.5,7.7,15.5,16.3V58.6z M316.1,54.7h21.8c-0.7-6.4-4.2-10.6-10.4-10.6
		C321.8,44.1,317,47.8,316.1,54.7z"/>
	<path class="st13" d="M350.7,73.7V19.3h5.1v54.5H350.7z"/>
	<path class="st13" d="M366,73.7V19.3h5.1v54.5H366z"/>
	<path class="st13" d="M410.8,73.7c-3.8,0-6.2-2.3-6.7-5.7c-2.3,3.2-6.3,6.5-13.4,6.5c-15.4,0-15.6-19.2,0.1-20.8
		c6.1-0.6,11.3,0.6,13.3,1.2v-2.3c0-5.2-3.6-8.6-9.2-8.6c-3.2,0-7,1.5-9.1,4.6l-3.9-3c0,0,4-6.2,12.9-6.2c8.6,0,13.9,5.2,13.9,13.2
		V67c0,1.2,0.8,2,2,2h0.7v4.7H410.8z M404.1,58.7c-1.6-0.4-7.3-1.5-12.8-0.9c-9,1-10.3,12.2,0,12.2C400.3,70,403.9,63.2,404.1,58.7z
		"/>
	<path class="st13" d="M432.3,46.7c-0.8-1.6-2.5-2.6-4.8-2.6c-2.2,0-4.3,1.5-4.3,4.3c0,2.7,3.2,4.4,6.8,6c4.5,2.1,9.4,4.9,9.4,10.4
		c0,5.2-3.7,9.7-11.1,9.7c-5.1,0-10-2.6-12.5-7.3l4.4-2c1.7,3.3,4.9,5.2,8.1,5.2c4.1,0,6.1-2.3,6.1-5.1c0-2.7-2.5-4.6-5.8-6.1
		c-4.8-2.1-10.3-4.6-10.3-10.5c0-5.7,4.6-8.7,9.3-8.7c3.6,0,7.3,1.6,8.8,4.8L432.3,46.7z"/>
</g>
<g>
	<linearGradient id="SVGID_5_" gradientUnits="userSpaceOnUse" x1="34.5913" y1="100.1086" x2="40.1915" y2="100.1086">
		<stop  offset="0" style="stop-color:#808184"/>
		<stop  offset="1" style="stop-color:#6D6E70"/>
	</linearGradient>
	<circle class="st14" cx="37.4" cy="100.1" r="2.8"/>
	<circle class="st15" cx="37.4" cy="100.1" r="2.8"/>
</g>
<g>
	<path d="M100.8,100.9c-4.2,0-7.5-3.4-7.5-7.5c0-4.1,3.3-7.5,7.5-7.5c2.4,0,4.2,0.9,5.6,2.6l-2.2,1.9c-0.8-1-2.1-1.7-3.4-1.7
		c-2.5,0-4.4,2-4.4,4.7c0,2.7,2,4.7,4.4,4.7c1.1,0,2.2-0.3,3-1.1v-1.8h-2.9v-2.5h5.7v5.5C105.2,99.9,103.3,100.9,100.8,100.9z"/>
	<path d="M108.8,95.6c0-3,2.4-5.3,5.4-5.3c3,0,5.4,2.3,5.4,5.3c0,3-2.4,5.3-5.4,5.3C111.1,100.9,108.8,98.6,108.8,95.6z M116.6,95.6
		c0-1.6-1-2.7-2.5-2.7c-1.5,0-2.5,1.2-2.5,2.7c0,1.6,1,2.7,2.5,2.7C115.6,98.3,116.6,97.2,116.6,95.6z"/>
	<path d="M120.9,95.6c0-3,2.4-5.3,5.4-5.3c3,0,5.4,2.3,5.4,5.3c0,3-2.4,5.3-5.4,5.3C123.3,100.9,120.9,98.6,120.9,95.6z M128.8,95.6
		c0-1.6-1-2.7-2.5-2.7c-1.5,0-2.5,1.2-2.5,2.7c0,1.6,1,2.7,2.5,2.7C127.8,98.3,128.8,97.2,128.8,95.6z"/>
	<path d="M140.6,100.7v-1.3c-0.8,1-1.9,1.6-3.1,1.6c-2.9,0-4.4-2.6-4.4-5.4c0-2.7,1.6-5.3,4.5-5.3c1.1,0,2.2,0.4,3,1.3V85h2.9v15.7
		H140.6z M140.6,95.6c0-1.6-0.9-2.7-2.3-2.7c-1.5,0-2.3,1.2-2.3,2.7c0,1.5,0.8,2.7,2.3,2.7C139.6,98.3,140.6,97,140.6,95.6z"/>
	<path d="M152.8,100.7V86h5.4c2.9,0,4.7,1.9,4.7,4.8c0,3-1.8,4.8-4.7,4.8h-2.4v5.1H152.8z M160,90.9c0-1.3-0.9-2.1-2.3-2.1h-1.9v4.2
		h1.9C159.1,92.9,160,92.2,160,90.9z"/>
	<path d="M168.2,100.7h-2.9V90.5h2.9v0.7c0,0.2,0,0.6-0.1,1c0.6-1.1,1.5-2,2.9-2v2.9c-1.5,0-2.8,0.9-2.8,2.6V100.7z"/>
	<path d="M174.7,85.4c1,0,1.9,0.9,1.9,1.9c0,1-0.9,1.9-1.9,1.9c-1,0-1.9-0.9-1.9-1.9C172.8,86.3,173.7,85.4,174.7,85.4z
		 M173.2,100.7V90.5h3v10.2H173.2z"/>
	<path d="M185.7,94c-0.5-0.6-1-1-1.8-1c-1.4,0-2.3,1.1-2.3,2.6c0,1.6,1,2.6,2.3,2.6c0.8,0,1.5-0.5,1.9-1.1l2.2,1.7
		c-1,1.4-2.3,2.2-4.1,2.2c-3.1,0-5.3-2.4-5.3-5.3c0-3,2.2-5.3,5.2-5.3c1.6,0,2.9,0.7,3.9,1.8L185.7,94z"/>
	<path d="M192.4,96.2c0.2,1.7,1.3,2.3,2.4,2.3c1.1,0,1.9-0.5,2.4-1.3l2,1.4c-1.1,1.5-2.2,2.2-4.5,2.2c-3,0-5.2-2.2-5.2-5.4
		c0-2.9,2-5.3,5.1-5.3c3.5,0,4.8,2.5,4.8,5.6v0.4H192.4z M192.5,94.4h4.1c-0.2-1.2-1.1-1.8-2-1.8C193.6,92.7,192.8,93.2,192.5,94.4z
		"/>
	<path d="M202.5,97.3c0.7,0.8,1.8,1.2,2.8,1.2c0.6,0,1.1-0.3,1.1-0.6c0-0.5-0.5-0.8-1.4-1c-1.6-0.5-3.6-1.3-3.6-3.4
		c0-2,1.9-3.1,3.6-3.1c1.6,0,2.6,0.5,3.6,1.5l-1.6,1.8c-0.4-0.5-1.3-0.9-1.9-0.9c-0.5,0-0.9,0.3-0.9,0.7c0,0.5,0.6,0.8,1.5,1
		c1.6,0.5,3.5,1.4,3.5,3.4c0,1.9-1.7,3.3-4,3.3c-1.8,0-3.4-0.5-4.5-1.7L202.5,97.3z"/>
	<path d="M212.8,97.1c1,0,1.9,0.9,1.9,1.9c0,1-0.9,1.9-1.9,1.9c-1,0-1.9-0.9-1.9-1.9C210.8,97.9,211.7,97.1,212.8,97.1z"/>
	<path d="M222.7,93.4c0-4.1,3.4-7.5,7.6-7.5c4.1,0,7.5,3.4,7.5,7.5c0,4.2-3.4,7.6-7.5,7.6C226.1,100.9,222.7,97.6,222.7,93.4z
		 M234.7,93.4c0-2.8-1.9-4.7-4.4-4.7c-2.6,0-4.5,2-4.5,4.7c0,2.8,1.9,4.7,4.5,4.7C232.8,98.1,234.7,96.2,234.7,93.4z"/>
	<path d="M249.6,100.7h-2.9V100c0-0.2,0-0.4,0.1-0.7c-0.7,1-1.7,1.7-3.1,1.7c-2.1,0-3.7-1.7-3.7-4.4v-6.1h3v5.9
		c0,1.4,0.9,2.2,1.9,2.2c0.9,0,1.8-0.7,1.9-2.1v-6h2.9V100.7z"/>
	<path d="M253.1,90.5v-3.7h2.9v3.7h1.4v2.7h-1.4v7.5h-2.9v-7.5h-1.4v-2.7H253.1z"/>
	<path d="M260.6,97.3c0.7,0.8,1.8,1.2,2.8,1.2c0.6,0,1.1-0.3,1.1-0.6c0-0.5-0.5-0.8-1.4-1c-1.6-0.5-3.6-1.3-3.6-3.4
		c0-2,1.9-3.1,3.6-3.1c1.6,0,2.6,0.5,3.6,1.5l-1.6,1.8c-0.4-0.5-1.3-0.9-1.9-0.9c-0.5,0-0.9,0.3-0.9,0.7c0,0.5,0.6,0.8,1.5,1
		c1.6,0.5,3.5,1.4,3.5,3.4c0,1.9-1.7,3.3-4,3.3c-1.8,0-3.4-0.5-4.5-1.7L260.6,97.3z"/>
	<path d="M270.2,90.5v-3.7h2.9v3.7h1.4v2.7h-1.4v7.5h-2.9v-7.5h-1.4v-2.7H270.2z"/>
	<path d="M286,100.7c-1.3,0-2.1-0.7-2.6-1.7c-0.6,1-1.8,2-3.7,2c-2.3,0-3.4-1.5-3.4-3c0-1.7,1.4-3.4,4.2-3.4c0.9,0,1.7,0.1,2.5,0.3
		v-0.3c0-1-0.7-1.7-1.8-1.7c-0.8,0-1.4,0.4-1.9,1l-2.1-1.5c0,0,1.2-2.1,4.1-2.1c2.9,0,4.6,1.7,4.6,4.2v3.1c0,0.4,0.3,0.6,0.6,0.6
		h0.4v2.7H286z M283.1,96.7c-0.5-0.1-1.2-0.2-1.6-0.2c-1.2,0-2.1,0.4-2.1,1.2c0,0.6,0.4,0.9,1.2,0.9
		C281.8,98.6,282.7,97.8,283.1,96.7z"/>
	<path d="M291.8,100.7h-2.9V90.5h2.9v0.7c0,0.2,0,0.4-0.1,0.7c0.7-1,1.7-1.7,3.1-1.7c2.1,0,3.7,1.7,3.7,4.4v6.1h-3v-5.9
		c0-1.4-0.9-2.2-1.9-2.2c-0.9,0-1.9,0.7-1.9,2.1V100.7z"/>
	<path d="M308.2,100.7v-1.3c-0.8,1-1.9,1.6-3.1,1.6c-2.9,0-4.4-2.6-4.4-5.4c0-2.7,1.6-5.3,4.5-5.3c1.1,0,2.2,0.4,3,1.3V85h2.9v15.7
		H308.2z M308.1,95.6c0-1.6-0.9-2.7-2.3-2.7c-1.5,0-2.3,1.2-2.3,2.7c0,1.5,0.8,2.7,2.3,2.7C307.2,98.3,308.1,97,308.1,95.6z"/>
	<path d="M315.3,85.4c1,0,1.9,0.9,1.9,1.9c0,1-0.9,1.9-1.9,1.9s-1.9-0.9-1.9-1.9C313.4,86.3,314.3,85.4,315.3,85.4z M313.8,100.7
		V90.5h3v10.2H313.8z"/>
	<path d="M322.6,100.7h-2.9V90.5h2.9v0.7c0,0.2,0,0.4-0.1,0.7c0.7-1,1.7-1.7,3.1-1.7c2.1,0,3.7,1.7,3.7,4.4v6.1h-3v-5.9
		c0-1.4-0.9-2.2-1.9-2.2c-0.9,0-1.9,0.7-1.9,2.1V100.7z"/>
	<path d="M338.4,90.7l1.3-1.5l1.7,1.6l-1.2,1.2c0.6,0.7,0.9,1.6,0.9,2.6c0,2.6-2.1,4.3-4.7,4.3c-0.6,0-1.1-0.1-1.6-0.2
		c-0.9,0.8-1,1.7,0.4,1.7c1,0,1.6-0.4,3-0.4c5.4,0,5.3,7.5-1.8,7.5c-5.3,0-6.4-3.4-4.6-5.8c-0.8-1.2-0.4-3,1-4.1
		c-0.7-0.7-1.1-1.7-1.1-2.9c0-2.6,2.1-4.3,4.7-4.3C337.2,90.3,337.9,90.4,338.4,90.7z M333.8,102.8c-0.6,1.1,0.1,2.1,2.6,2.1
		c3.7,0,3.6-2.6,1.7-2.6c-1.1,0-2.3,0.5-3.8,0.5C334.2,102.8,334,102.8,333.8,102.8z M336.5,96.4c1.2,0,1.9-0.7,1.9-1.8
		c0-1.2-0.8-1.9-1.9-1.9c-1.2,0-1.9,0.7-1.9,1.9C334.6,95.8,335.4,96.4,336.5,96.4z"/>
	<path d="M348.9,98.1l2.4-1.7c0.6,1.2,1.5,1.8,2.6,1.8c1,0,1.6-0.7,1.6-1.6c0-2.2-5.7-3-5.7-7c0-2.2,1.9-3.8,4-3.8
		c1.7,0,2.9,0.8,3.7,2l-2,1.8c-0.4-0.6-0.9-1-1.5-1c-0.6,0-1.1,0.4-1.1,1.1c0,1.8,5.6,2.8,5.6,6.9c0,2.5-1.9,4.4-4.7,4.4
		C351.8,100.9,349.9,100.1,348.9,98.1z"/>
	<path d="M362.6,96.2c0.2,1.7,1.3,2.3,2.4,2.3c1.1,0,1.9-0.5,2.4-1.3l2,1.4c-1.1,1.5-2.2,2.2-4.5,2.2c-3,0-5.2-2.2-5.2-5.4
		c0-2.9,2-5.3,5.1-5.3c3.5,0,4.8,2.5,4.8,5.6v0.4H362.6z M362.7,94.4h4.1c-0.2-1.2-1.1-1.8-2-1.8C363.8,92.7,363,93.2,362.7,94.4z"
		/>
	<path d="M374.6,100.7h-2.9V90.5h2.9v0.7c0,0.2,0,0.6-0.1,1c0.6-1.1,1.5-2,2.9-2v2.9c-1.5,0-2.8,0.9-2.8,2.6V100.7z"/>
	<path d="M382.1,100.7l-3.7-10.2h3.2l1.9,5.3c0.2,0.6,0.3,1.3,0.4,1.5c0-0.1,0.1-0.9,0.4-1.5l1.9-5.3h3.2l-3.7,10.2H382.1z"/>
	<path d="M392.4,85.4c1,0,1.9,0.9,1.9,1.9c0,1-0.9,1.9-1.9,1.9s-1.9-0.9-1.9-1.9C390.4,86.3,391.3,85.4,392.4,85.4z M390.8,100.7
		V90.5h3v10.2H390.8z"/>
	<path d="M403.4,94c-0.5-0.6-1-1-1.8-1c-1.4,0-2.3,1.1-2.3,2.6c0,1.6,1,2.6,2.3,2.6c0.8,0,1.5-0.5,1.9-1.1l2.2,1.7
		c-1.1,1.4-2.3,2.2-4.1,2.2c-3.1,0-5.3-2.4-5.3-5.3c0-3,2.2-5.3,5.2-5.3c1.6,0,2.9,0.7,3.9,1.8L403.4,94z"/>
	<path d="M410.1,96.2c0.2,1.7,1.3,2.3,2.4,2.3c1.1,0,1.9-0.5,2.4-1.3l2,1.4c-1.1,1.5-2.2,2.2-4.5,2.2c-3,0-5.2-2.2-5.2-5.4
		c0-2.9,2-5.3,5.1-5.3c3.5,0,4.8,2.5,4.8,5.6v0.4H410.1z M410.1,94.4h4.1c-0.2-1.2-1.1-1.8-2-1.8C411.2,92.7,410.4,93.2,410.1,94.4z
		"/>
	<path d="M420.6,97.1c1,0,1.9,0.9,1.9,1.9c0,1-0.9,1.9-1.9,1.9s-1.9-0.9-1.9-1.9C418.6,97.9,419.5,97.1,420.6,97.1z"/>
</g>
</svg>
